# xmcd CD database file
#
# Track frame offsets:
#	150
#	13404
#	25157
#	35481
#	46460
#	60525
#	72897
#	88218
#	99618
#	110360
#	120458
#	132444
#	145953
#	157345
#	169744
#	185152
#
# Disc length: 2597 seconds
#
# Revision: 0
# Processed by: cddbd v1.5.1PL0 Copyright (c) Steve Scherf et al.
# Submitted via: CDex 1.51
#
DISCID=ec0a2310
DTITLE=Aurinha e Gr Rala Coco - Eu avistei
DYEAR=2002
DGENRE=Folklore Nacional
TTITLE0=Coco da boa noite-Piaba-Sua maezinha
TTITLE1=Eu avistei
TTITLE2=Swing Nana
TTITLE3=Bonequeiro
TTITLE4=Ela chuta a bola
TTITLE5=Natureza
TTITLE6=Coco pra Selma
TTITLE7=Jangadeiro Ant de Pimpa
TTITLE8=O gago
TTITLE9=Paraibana
TTITLE10=Vento do Manuel
TTITLE11=Embola coco
TTITLE12=Anita
TTITLE13=Ladeiras de Olinda
TTITLE14=Joao Vieira
TTITLE15=Despedida
EXTD=YEAR: 2002
EXTT0=
EXTT1=
EXTT2=
EXTT3=
EXTT4=
EXTT5=
EXTT6=
EXTT7=
EXTT8=
EXTT9=
EXTT10=
EXTT11=
EXTT12=
EXTT13=
EXTT14=
EXTT15=
PLAYORDER=
